<svg width="51" height="70" viewBox="0 0 51 70" fill="none" xmlns="http://www.w3.org/2000/svg">
<path d="M38.4883 2.39999C41.6216 4 44.0216 6.2 45.6883 9C47.4216 11.8 48.2883 14.9333 48.2883 18.4C48.2883 21.6667 47.4216 24.7 45.6883 27.5C44.0216 30.2333 41.6883 32.4 38.6883 34C42.2216 35.2 45.1549 37.4 47.4883 40.6C49.8216 43.8 50.9883 47.3333 50.9883 51.2C50.9883 54.6667 50.1216 57.8667 48.3883 60.8C46.6549 63.7333 44.3549 66 41.4883 67.6C40.0216 68.4 38.3883 69 36.5883 69.4C34.7883 69.8 32.3883 70 29.3883 70H0.188282V0.399996H27.9883C32.3883 0.399996 35.8883 1.06666 38.4883 2.39999ZM36.8883 31.1C39.2883 29.9 41.1883 28.1667 42.5883 25.9C43.9883 23.6333 44.6883 21.1333 44.6883 18.4C44.6883 15.3333 43.8883 12.6667 42.2883 10.4C40.6883 8.06666 38.655 6.36666 36.1883 5.3C34.3216 4.5 31.1883 4.1 26.7883 4.1H3.78828V32.7H28.5883C32.055 32.7 34.8216 32.1667 36.8883 31.1ZM39.2883 64.8C41.7549 63.5333 43.7216 61.7 45.1883 59.3C46.655 56.8333 47.3883 54.1667 47.3883 51.3C47.3883 48.3 46.6216 45.6 45.0883 43.2C43.555 40.7333 41.4883 38.9 38.8883 37.7C36.8883 36.7667 34.1883 36.3 30.7883 36.3H3.78828V66.4H29.4883C32.0216 66.4 34.0216 66.2667 35.4883 66C36.955 65.7333 38.2216 65.3333 39.2883 64.8Z" fill="black"/>
</svg>
