<svg width="55" height="70" viewBox="0 0 55 70" fill="none" xmlns="http://www.w3.org/2000/svg">
<path d="M40.5883 2.7C44.5883 4.56666 47.7216 7.33333 49.9883 11C52.3216 14.6667 53.4883 18.7333 53.4883 23.2C53.4883 28.4 51.8883 33.0667 48.6883 37.2C45.555 41.2667 41.5216 43.9667 36.5883 45.3L54.2883 70H49.8883L32.7883 46L29.5883 46.1H4.48828V70H0.788282V0.399996H27.2883C30.2216 0.399996 32.7216 0.599995 34.7883 0.999994C36.9216 1.33333 38.855 1.89999 40.5883 2.7ZM30.5883 42.4C34.055 42.4 37.2549 41.5333 40.1883 39.8C43.1216 38.0667 45.455 35.7333 47.1883 32.8C48.9216 29.8667 49.7883 26.6667 49.7883 23.2C49.7883 19.3333 48.755 15.8333 46.6883 12.7C44.6883 9.56667 41.8883 7.23333 38.2883 5.7C35.6883 4.63333 32.0216 4.1 27.2883 4.1H4.48828V42.4H30.5883Z" fill="black"/>
</svg>
