<svg width="53" height="74" viewBox="0 0 53 74" fill="none" xmlns="http://www.w3.org/2000/svg">
<path d="M27.9883 38.7C22.3216 37.5667 17.6883 36.3333 14.0883 35C10.5549 33.6 7.75495 31.7333 5.68828 29.4C3.68828 27 2.68828 23.9333 2.68828 20.2C2.68828 16.3333 3.68828 12.9333 5.68828 10C7.75495 7.06666 10.6216 4.8 14.2883 3.2C18.0216 1.6 22.3216 0.799999 27.1883 0.799999C31.8549 0.799999 36.1216 1.8 39.9883 3.8C43.9216 5.73333 47.0216 8.46666 49.2883 12C51.555 15.5333 52.6883 19.5667 52.6883 24.1H48.9883C48.9883 20.1667 48.0216 16.7 46.0883 13.7C44.1549 10.7 41.5216 8.4 38.1883 6.8C34.8549 5.13333 31.1549 4.3 27.0883 4.3C23.4883 4.3 20.1216 4.86666 16.9883 6C13.8549 7.13333 11.2883 8.86666 9.28828 11.2C7.35495 13.5333 6.38828 16.4667 6.38828 20C6.38828 23.2 7.32162 25.7667 9.18828 27.7C11.0549 29.5667 13.4883 31 16.4883 32C19.4883 33 23.6883 34.0667 29.0883 35.2C34.5549 36.3333 38.7883 37.4333 41.7883 38.5C44.8549 39.5 47.4216 41.2 49.4883 43.6C51.6216 46 52.6883 49.3667 52.6883 53.7C52.6883 58.0333 51.5216 61.7 49.1883 64.7C46.9216 67.6333 43.8883 69.8333 40.0883 71.3C36.2883 72.7667 32.155 73.5 27.6883 73.5C22.155 73.5 17.2883 72.4667 13.0883 70.4C8.88828 68.3333 5.65495 65.4333 3.38828 61.7C1.18828 57.9 0.0882819 53.5667 0.0882819 48.7H3.78828C3.78828 52.9667 4.72162 56.7 6.58828 59.9C8.52161 63.1 11.2883 65.6 14.8883 67.4C18.4883 69.1333 22.755 70 27.6883 70C33.8216 70 38.8883 68.5333 42.8883 65.6C46.955 62.6667 48.9883 58.6667 48.9883 53.6C48.9883 50.1333 48.1216 47.4667 46.3883 45.6C44.655 43.7333 42.455 42.4 39.7883 41.6C37.1883 40.7333 33.2549 39.7667 27.9883 38.7Z" fill="black"/>
</svg>
