<svg width="57" height="72" viewBox="0 0 57 72" fill="none" xmlns="http://www.w3.org/2000/svg">
<path d="M0.388281 0.399996H4.08828V43.4C4.08828 47.8 5.18828 51.8667 7.38828 55.6C9.58828 59.3333 12.5549 62.3 16.2883 64.5C20.0216 66.7 24.0883 67.8 28.4883 67.8C32.8883 67.8 36.9549 66.7 40.6883 64.5C44.4216 62.3 47.3883 59.3333 49.5883 55.6C51.7883 51.8667 52.8883 47.8 52.8883 43.4V0.399996H56.5883V43.4C56.5883 48.4667 55.3216 53.1667 52.7883 57.5C50.255 61.7667 46.8216 65.1667 42.4883 67.7C38.2216 70.2333 33.5549 71.5 28.4883 71.5C23.4216 71.5 18.7216 70.2333 14.3883 67.7C10.1216 65.1667 6.72162 61.7667 4.18828 57.5C1.65495 53.1667 0.388281 48.4667 0.388281 43.4V0.399996Z" fill="black"/>
</svg>
